# Blender v3.1.2 OBJ File: 'coffee_table.blend'
# www.blender.org
o coffee_table
v 0.395910 0.442000 -0.162175
v 0.428496 0.442000 -0.162175
v 0.395910 0.442000 0.162175
v 0.428496 0.442000 0.162175
v -0.395910 0.442000 -0.162175
v -0.428497 0.442000 -0.162175
v -0.395910 0.442000 0.162175
v -0.428497 0.442000 0.162175
v 0.391024 0.442000 0.167061
v 0.391024 0.442000 0.199647
v -0.391024 0.442000 0.167061
v -0.391024 0.442000 0.199647
v 0.391024 0.442000 -0.167061
v 0.391024 0.442000 -0.199647
v -0.391024 0.442000 -0.167061
v -0.391024 0.442000 -0.199647
v 0.428496 0.368649 -0.162175
v 0.424871 0.365024 -0.162175
v 0.399535 0.365024 -0.162175
v 0.395910 0.368649 -0.162175
v 0.424871 0.365024 0.162175
v 0.428496 0.368649 0.162175
v 0.395910 0.368649 0.162175
v 0.399535 0.365024 0.162175
v -0.424872 0.365024 -0.162175
v -0.428497 0.368649 -0.162175
v -0.395910 0.368649 -0.162175
v -0.399535 0.365024 -0.162175
v -0.428497 0.368649 0.162175
v -0.424872 0.365024 0.162175
v -0.399535 0.365024 0.162175
v -0.395910 0.368649 0.162175
v 0.391024 0.368649 0.199647
v 0.391024 0.365024 0.196022
v 0.391024 0.365024 0.170686
v 0.391024 0.368649 0.167061
v -0.391024 0.365024 0.196022
v -0.391024 0.368649 0.199647
v -0.391024 0.368649 0.167061
v -0.391024 0.365024 0.170686
v 0.391024 0.365024 -0.196022
v 0.391024 0.368649 -0.199647
v 0.391024 0.368649 -0.167061
v 0.391024 0.365024 -0.170686
v -0.391024 0.368649 -0.199647
v -0.391024 0.365024 -0.196022
v -0.391024 0.365024 -0.170686
v -0.391024 0.368649 -0.167061
v -0.477500 0.467000 0.207859
v -0.455359 0.467000 0.230000
v -0.475815 0.467000 0.216332
v -0.471015 0.467000 0.223515
v -0.463832 0.467000 0.228315
v -0.455359 0.467000 -0.230000
v -0.477500 0.467000 -0.207859
v -0.463832 0.467000 -0.228315
v -0.471015 0.467000 -0.223515
v -0.475815 0.467000 -0.216332
v 0.455359 0.467000 0.230000
v 0.477500 0.467000 0.207859
v 0.463832 0.467000 0.228315
v 0.471015 0.467000 0.223515
v 0.475815 0.467000 0.216332
v 0.477500 0.467000 -0.207859
v 0.455359 0.467000 -0.230000
v 0.475815 0.467000 -0.216332
v 0.471015 0.467000 -0.223515
v 0.463832 0.467000 -0.228315
v -0.455359 0.442000 0.230000
v -0.477500 0.442000 0.207859
v -0.463832 0.442000 0.228315
v -0.471015 0.442000 0.223515
v -0.475815 0.442000 0.216332
v -0.477500 0.442000 -0.207859
v -0.455359 0.442000 -0.230000
v -0.475815 0.442000 -0.216332
v -0.471015 0.442000 -0.223515
v -0.463832 0.442000 -0.228315
v 0.455359 0.442000 -0.230000
v 0.477500 0.442000 -0.207859
v 0.463832 0.442000 -0.228315
v 0.471015 0.442000 -0.223515
v 0.475815 0.442000 -0.216332
v 0.477500 0.442000 0.207859
v 0.455359 0.442000 0.230000
v 0.475815 0.442000 0.216332
v 0.471015 0.442000 0.223515
v 0.463832 0.442000 0.228315
v 0.455359 0.467000 0.207859
v -0.455359 0.467000 0.207859
v 0.455359 0.467000 -0.207859
v -0.455359 0.467000 -0.207859
v -0.455359 0.442000 -0.207859
v -0.455359 0.442000 0.207859
v 0.455359 0.442000 0.207859
v 0.455359 0.442000 -0.207859
v 0.395552 0.000000 0.204175
v 0.391024 0.000000 0.199647
v 0.391024 0.000000 0.166703
v 0.395552 0.000000 0.162175
v 0.433024 0.000000 0.199647
v 0.428496 0.000000 0.204175
v 0.428496 0.000000 0.162175
v 0.433024 0.000000 0.166703
v 0.391024 0.442000 0.199647
v 0.395552 0.442000 0.204175
v 0.395552 0.442000 0.162175
v 0.391024 0.442000 0.166703
v 0.433024 0.442000 0.166703
v 0.428496 0.442000 0.162175
v 0.428496 0.442000 0.204175
v 0.433024 0.442000 0.199647
v 0.395552 0.000000 -0.204175
v 0.391024 0.000000 -0.199647
v 0.391024 0.000000 -0.166703
v 0.395552 0.000000 -0.162175
v 0.433024 0.000000 -0.199647
v 0.428496 0.000000 -0.204175
v 0.428496 0.000000 -0.162175
v 0.433024 0.000000 -0.166703
v 0.391024 0.442000 -0.199647
v 0.395552 0.442000 -0.204175
v 0.395552 0.442000 -0.162175
v 0.391024 0.442000 -0.166703
v 0.433024 0.442000 -0.166703
v 0.428496 0.442000 -0.162175
v 0.428496 0.442000 -0.204175
v 0.433024 0.442000 -0.199647
v -0.395552 0.000000 0.204175
v -0.391024 0.000000 0.199647
v -0.391024 0.000000 0.166703
v -0.395552 0.000000 0.162175
v -0.433024 0.000000 0.199647
v -0.428496 0.000000 0.204175
v -0.428496 0.000000 0.162175
v -0.433024 0.000000 0.166703
v -0.391024 0.442000 0.199647
v -0.395552 0.442000 0.204175
v -0.395552 0.442000 0.162175
v -0.391024 0.442000 0.166703
v -0.433024 0.442000 0.166703
v -0.428496 0.442000 0.162175
v -0.428496 0.442000 0.204175
v -0.433024 0.442000 0.199647
v -0.395552 0.000000 -0.204175
v -0.391024 0.000000 -0.199647
v -0.391024 0.000000 -0.166703
v -0.395552 0.000000 -0.162175
v -0.433024 0.000000 -0.199647
v -0.428496 0.000000 -0.204175
v -0.428496 0.000000 -0.162175
v -0.433024 0.000000 -0.166703
v -0.391024 0.442000 -0.199647
v -0.395552 0.442000 -0.204175
v -0.395552 0.442000 -0.162175
v -0.391024 0.442000 -0.166703
v -0.433024 0.442000 -0.166703
v -0.428496 0.442000 -0.162175
v -0.428496 0.442000 -0.204175
v -0.433024 0.442000 -0.199647
vt 0.345094 0.909497
vt 0.327381 0.909497
vt 0.327381 0.682742
vt 0.345094 0.682742
vt 0.323423 0.682748
vt 0.323423 0.909503
vt 0.272143 0.909503
vt 0.272143 0.682748
vt 0.485998 0.682736
vt 0.537278 0.682736
vt 0.537278 0.909491
vt 0.485998 0.909491
vt 0.867723 0.004448
vt 0.884711 0.004448
vt 0.884711 0.528817
vt 0.867723 0.528817
vt 0.725308 0.528816
vt 0.725309 0.004448
vt 0.742297 0.004448
vt 0.742298 0.528816
vt 0.400331 0.909491
vt 0.349051 0.909491
vt 0.349051 0.682736
vt 0.400331 0.682736
vt 0.751449 0.528748
vt 0.751448 0.004379
vt 0.800631 0.004379
vt 0.800631 0.528748
vt 0.716157 0.004516
vt 0.716156 0.528885
vt 0.666974 0.528885
vt 0.666975 0.004516
vt 0.893863 0.004379
vt 0.943045 0.004379
vt 0.943045 0.528749
vt 0.893863 0.528749
vt 0.809389 0.528886
vt 0.809389 0.004516
vt 0.858572 0.004516
vt 0.858571 0.528886
vt 0.482041 0.682742
vt 0.482040 0.909497
vt 0.464328 0.909497
vt 0.464328 0.682742
vt 0.460370 0.909503
vt 0.460370 0.682748
vt 0.409090 0.909503
vt 0.409090 0.682748
vt 0.630171 0.682750
vt 0.630171 0.987622
vt 0.607448 0.987622
vt 0.607448 0.682750
vt 0.602127 0.682764
vt 0.602126 0.987637
vt 0.579403 0.987637
vt 0.579404 0.682764
vt 0.574082 0.682779
vt 0.574082 0.987651
vt 0.551358 0.987651
vt 0.551359 0.682779
vt 0.635493 0.682736
vt 0.635492 0.987608
vt 0.546037 0.987666
vt 0.546038 0.682793
vt 0.658216 0.682736
vt 0.658216 0.987608
vt 0.781595 0.877611
vt 0.811044 0.877611
vt 0.807869 0.880786
vt 0.784770 0.880786
vt 0.781595 0.854512
vt 0.811044 0.854512
vt 0.784770 0.851338
vt 0.807869 0.851338
vt 0.672296 0.537659
vt 0.695019 0.537659
vt 0.695020 0.842532
vt 0.672297 0.842532
vt 0.700340 0.537675
vt 0.723064 0.537675
vt 0.723064 0.842547
vt 0.700341 0.842548
vt 0.728385 0.537691
vt 0.751108 0.537691
vt 0.751109 0.842563
vt 0.728385 0.842563
vt 0.666975 0.842516
vt 0.666974 0.537643
vt 0.756430 0.537706
vt 0.756430 0.842579
vt 0.779153 0.537706
vt 0.779153 0.842579
vt 0.734630 0.877611
vt 0.731455 0.880786
vt 0.708356 0.880786
vt 0.705181 0.877611
vt 0.734630 0.854512
vt 0.705181 0.854512
vt 0.731455 0.851337
vt 0.708356 0.851337
vt 0.032424 0.682750
vt 0.055147 0.682750
vt 0.055148 0.987623
vt 0.032425 0.987623
vt 0.060469 0.682766
vt 0.083192 0.682766
vt 0.083192 0.987638
vt 0.060469 0.987638
vt 0.088513 0.682782
vt 0.111237 0.682782
vt 0.111237 0.987654
vt 0.088513 0.987654
vt 0.027103 0.987607
vt 0.027103 0.682734
vt 0.116558 0.682797
vt 0.116558 0.987670
vt 0.004379 0.682734
vt 0.004380 0.987607
vt 0.772837 0.877611
vt 0.769662 0.880786
vt 0.746563 0.880786
vt 0.743388 0.877611
vt 0.772837 0.854512
vt 0.743388 0.854512
vt 0.769662 0.851337
vt 0.746563 0.851337
vt 0.232174 0.682749
vt 0.232174 0.987621
vt 0.209450 0.987621
vt 0.209451 0.682749
vt 0.204129 0.682763
vt 0.204129 0.987636
vt 0.181406 0.987636
vt 0.181406 0.682763
vt 0.176085 0.682778
vt 0.176084 0.987650
vt 0.153361 0.987650
vt 0.153362 0.682778
vt 0.237495 0.682734
vt 0.237495 0.987607
vt 0.148040 0.987664
vt 0.148041 0.682792
vt 0.125316 0.987664
vt 0.125318 0.682792
vt 0.696423 0.854512
vt 0.666974 0.854512
vt 0.670149 0.851337
vt 0.693248 0.851337
vt 0.696423 0.877611
vt 0.666974 0.877611
vt 0.693248 0.880786
vt 0.670149 0.880786
vt 0.642691 0.658453
vt 0.658216 0.658453
vt 0.657034 0.664394
vt 0.653669 0.669430
vt 0.978092 0.667155
vt 0.995621 0.667155
vt 0.995621 0.958641
vt 0.978092 0.958641
vt 0.311394 0.019908
vt 0.311394 0.004384
vt 0.317335 0.005566
vt 0.322371 0.008931
vt 0.969333 0.320094
vt 0.951804 0.320094
vt 0.951804 0.028608
vt 0.969333 0.028608
vt 0.978092 0.004379
vt 0.995621 0.004379
vt 0.995621 0.642925
vt 0.978092 0.642925
vt 0.969333 0.344324
vt 0.951804 0.344324
vt 0.951804 0.338266
vt 0.969333 0.338267
vt 0.951804 0.332209
vt 0.969333 0.332209
vt 0.951804 0.326152
vt 0.969333 0.326152
vt 0.951804 0.004379
vt 0.969333 0.004379
vt 0.969333 0.010437
vt 0.951804 0.010437
vt 0.969333 0.016494
vt 0.951804 0.016494
vt 0.969333 0.022551
vt 0.951804 0.022551
vt 0.978092 0.661097
vt 0.995621 0.661097
vt 0.978092 0.655040
vt 0.995621 0.655040
vt 0.978092 0.648982
vt 0.995621 0.648983
vt 0.995621 0.982870
vt 0.978092 0.982870
vt 0.978092 0.976812
vt 0.995621 0.976812
vt 0.978092 0.970755
vt 0.995621 0.970755
vt 0.978092 0.964698
vt 0.995621 0.964698
vt 0.969333 0.982870
vt 0.951804 0.982870
vt 0.351210 0.019904
vt 0.335686 0.019904
vt 0.336867 0.013963
vt 0.340233 0.008927
vt 0.642691 0.019904
vt 0.653669 0.008926
vt 0.657034 0.013963
vt 0.658216 0.019904
vt 0.351205 0.658451
vt 0.351205 0.673975
vt 0.345263 0.672794
vt 0.340227 0.669428
vt 0.335680 0.658450
vt 0.351210 0.004380
vt 0.642691 0.004379
vt 0.642691 0.673977
vt 0.336861 0.664392
vt 0.648632 0.672795
vt 0.648632 0.005561
vt 0.345269 0.005561
vt 0.019916 0.019903
vt 0.004391 0.019903
vt 0.005573 0.013962
vt 0.008939 0.008926
vt 0.311395 0.658450
vt 0.326918 0.019908
vt 0.326921 0.658450
vt 0.019904 0.658451
vt 0.004379 0.658451
vt 0.019916 0.004379
vt 0.311395 0.673976
vt 0.019904 0.673976
vt 0.008926 0.669429
vt 0.005561 0.664392
vt 0.325739 0.664392
vt 0.322373 0.669429
vt 0.317336 0.672794
vt 0.013963 0.672794
vt 0.013975 0.005561
vt 0.325737 0.013967
vn 0.0000 -1.0000 0.0000
vn -1.0000 0.0000 0.0000
vn 1.0000 0.0000 0.0000
vn -0.0000 0.0000 1.0000
vn 0.0000 0.0000 -1.0000
vn -0.7071 -0.7071 0.0000
vn 0.7071 -0.7071 0.0000
vn 0.0000 -0.7071 -0.7071
vn -0.0000 -0.7071 0.7071
vn -0.7071 0.0000 -0.7071
vn 0.7071 0.0000 -0.7071
vn 0.7071 0.0000 0.7071
vn -0.7071 0.0000 0.7071
vn 0.0000 1.0000 0.0000
vn 0.9952 0.0000 -0.0980
vn 0.9952 0.0000 0.0980
vn -0.9952 0.0000 0.0980
vn -0.9952 0.0000 -0.0980
vn -0.0980 0.0000 -0.9952
vn 0.0980 0.0000 -0.9952
vn -0.0980 0.0000 0.9952
vn -0.3827 0.0000 0.9239
vn -0.9239 0.0000 0.3827
vn -0.3827 0.0000 -0.9239
vn -0.9239 0.0000 -0.3827
vn 0.9239 0.0000 -0.3827
vn 0.3827 0.0000 -0.9239
vn 0.0980 0.0000 0.9952
vn 0.3827 0.0000 0.9239
vn 0.9239 0.0000 0.3827
s off
f 31/1/1 30/2/1 25/3/1 28/4/1
f 26/5/2 29/6/2 8/7/2 6/8/2
f 23/9/2 3/10/2 1/11/2 20/12/2
f 47/13/1 46/14/1 41/15/1 44/16/1
f 40/17/1 35/18/1 34/19/1 37/20/1
f 7/21/3 32/22/3 27/23/3 5/24/3
f 38/25/4 33/26/4 10/27/4 12/28/4
f 36/29/5 39/30/5 11/31/5 9/32/5
f 45/33/5 16/34/5 14/35/5 42/36/5
f 13/37/4 15/38/4 48/39/4 43/40/4
f 24/41/1 19/42/1 18/43/1 21/44/1
f 19/42/6 24/41/6 23/9/6 20/12/6
f 21/44/7 18/43/7 17/45/7 22/46/7
f 27/23/7 32/22/7 31/1/7 28/4/7
f 29/6/6 26/5/6 25/3/6 30/2/6
f 39/30/8 36/29/8 35/18/8 40/17/8
f 33/26/9 38/25/9 37/20/9 34/19/9
f 47/13/9 44/16/9 43/40/9 48/39/9
f 41/15/8 46/14/8 45/33/8 42/36/8
f 17/45/3 2/47/3 4/48/3 22/46/3
f 100/49/5 107/50/5 110/51/5 103/52/5
f 104/53/3 109/54/3 112/55/3 101/56/3
f 102/57/4 111/58/4 106/59/4 97/60/4
f 107/50/10 100/49/10 99/61/10 108/62/10
f 109/54/11 104/53/11 103/52/11 110/51/11
f 111/58/12 102/57/12 101/56/12 112/55/12
f 97/60/13 106/59/13 105/63/13 98/64/13
f 98/65/2 105/66/2 108/62/2 99/61/2
f 98/67/1 101/68/1 102/69/1 97/70/1
f 99/71/1 104/72/1 101/68/1 98/67/1
f 100/73/1 103/74/1 104/72/1 99/71/1
f 116/75/4 119/76/4 126/77/4 123/78/4
f 120/79/3 117/80/3 128/81/3 125/82/3
f 118/83/5 113/84/5 122/85/5 127/86/5
f 123/78/13 124/87/13 115/88/13 116/75/13
f 125/82/12 126/77/12 119/76/12 120/79/12
f 127/86/11 128/81/11 117/80/11 118/83/11
f 113/84/10 114/89/10 121/90/10 122/85/10
f 114/89/2 115/91/2 124/92/2 121/90/2
f 114/93/1 113/94/1 118/95/1 117/96/1
f 115/97/1 114/93/1 117/96/1 120/98/1
f 116/99/1 115/97/1 120/98/1 119/100/1
f 132/101/5 135/102/5 142/103/5 139/104/5
f 136/105/2 133/106/2 144/107/2 141/108/2
f 134/109/4 129/110/4 138/111/4 143/112/4
f 139/104/11 140/113/11 131/114/11 132/101/11
f 141/108/10 142/103/10 135/102/10 136/105/10
f 143/112/13 144/107/13 133/106/13 134/109/13
f 129/110/12 130/115/12 137/116/12 138/111/12
f 130/117/3 131/114/3 140/113/3 137/118/3
f 130/119/1 129/120/1 134/121/1 133/122/1
f 131/123/1 130/119/1 133/122/1 136/124/1
f 132/125/1 131/123/1 136/124/1 135/126/1
f 148/127/4 155/128/4 158/129/4 151/130/4
f 152/131/2 157/132/2 160/133/2 149/134/2
f 150/135/5 159/136/5 154/137/5 145/138/5
f 155/128/12 148/127/12 147/139/12 156/140/12
f 157/132/13 152/131/13 151/130/13 158/129/13
f 159/136/10 150/135/10 149/134/10 160/133/10
f 145/138/11 154/137/11 153/141/11 146/142/11
f 146/142/3 153/141/3 156/143/3 147/144/3
f 146/145/1 149/146/1 150/147/1 145/148/1
f 147/149/1 152/150/1 149/146/1 146/145/1
f 148/151/1 151/152/1 152/150/1 147/149/1
s 1
f 92/153/14 54/154/14 56/155/14 57/156/14
f 80/157/15 64/158/15 60/159/16 84/160/16
f 93/161/1 74/162/1 76/163/1 77/164/1
f 70/165/17 49/166/17 55/167/18 74/168/18
f 75/169/19 54/170/19 65/171/20 79/172/20
f 69/173/21 50/174/21 53/175/22 71/176/22
f 71/176/22 53/175/22 52/177/13 72/178/13
f 72/178/13 52/177/13 51/179/23 73/180/23
f 73/180/23 51/179/23 49/166/17 70/165/17
f 54/181/19 75/182/19 78/183/24 56/184/24
f 56/184/24 78/183/24 77/185/10 57/186/10
f 57/186/10 77/185/10 76/187/25 58/188/25
f 58/188/25 76/187/25 74/168/18 55/167/18
f 64/158/15 80/157/15 83/189/26 66/190/26
f 66/190/26 83/189/26 82/191/11 67/192/11
f 67/192/11 82/191/11 81/193/27 68/194/27
f 68/194/27 81/193/27 79/172/20 65/171/20
f 59/195/28 85/196/28 88/197/29 61/198/29
f 61/198/29 88/197/29 87/199/12 62/200/12
f 62/200/12 87/199/12 86/201/30 63/202/30
f 63/202/30 86/201/30 84/160/16 60/159/16
f 85/203/28 59/204/28 50/174/21 69/173/21
f 89/205/14 59/206/14 61/207/14 62/208/14
f 91/209/14 67/210/14 68/211/14 65/212/14
f 90/213/14 49/214/14 51/215/14 52/216/14
f 91/209/14 65/212/14 54/154/14 92/153/14
f 59/206/14 89/205/14 90/213/14 50/217/14
f 89/205/14 91/209/14 92/153/14 90/213/14
f 60/218/14 64/219/14 91/209/14 89/205/14
f 90/213/14 92/153/14 55/220/14 49/214/14
f 50/217/14 90/213/14 52/216/14 53/221/14
f 55/220/14 92/153/14 57/156/14 58/222/14
f 64/219/14 66/223/14 67/210/14 91/209/14
f 60/218/14 89/205/14 62/208/14 63/224/14
f 94/225/1 69/226/1 71/227/1 72/228/1
f 96/229/1 93/161/1 75/230/1 79/231/1
f 95/232/1 85/233/1 69/226/1 94/225/1
f 96/229/1 95/232/1 94/225/1 93/161/1
f 93/161/1 94/225/1 70/234/1 74/162/1
f 80/235/1 84/236/1 95/232/1 96/229/1
f 95/232/1 87/237/1 88/238/1 85/233/1
f 96/229/1 79/231/1 81/239/1 82/240/1
f 80/235/1 96/229/1 82/240/1 83/241/1
f 84/236/1 86/242/1 87/237/1 95/232/1
f 70/234/1 94/225/1 72/228/1 73/243/1
f 75/230/1 93/161/1 77/164/1 78/244/1
